<?xml version="1.0" standalone="no"?>
<!DOCTYPE svg PUBLIC "-//W3C//DTD SVG 20010904//EN"
 "http://www.w3.org/TR/2001/REC-SVG-20010904/DTD/svg10.dtd">
<svg version="1.0" xmlns="http://www.w3.org/2000/svg"
 width="1463.000000pt" height="706.000000pt" viewBox="0 0 1463.000000 706.000000"
 preserveAspectRatio="xMidYMid meet">

<g transform="translate(0.000000,706.000000) scale(0.100000,-0.100000)"
fill="#000000" stroke="none">
<path d="M8518 4521 c-208 -67 -349 -284 -387 -596 -14 -119 -15 -1987 -1
-2102 34 -269 148 -480 306 -565 195 -105 452 -65 597 92 128 138 187 331 203
663 l7 147 -142 0 -141 0 0 -114 c0 -250 -62 -405 -185 -462 -155 -73 -297 19
-361 232 -17 54 -18 132 -22 999 -4 1103 -3 1115 84 1252 47 73 100 106 181
111 84 6 139 -16 193 -74 75 -81 100 -167 107 -371 l6 -153 140 0 140 0 -7
148 c-12 256 -34 366 -101 510 -70 148 -170 241 -306 283 -81 25 -232 25 -311
0z"/>
<path d="M4578 3148 l-3 -1363 -24 -59 c-27 -68 -82 -133 -128 -153 -41 -17
-127 -16 -176 1 -60 22 -117 66 -166 129 l-45 58 -26 -30 c-14 -16 -58 -68
-98 -115 l-74 -86 38 -62 c102 -167 270 -268 449 -268 245 0 427 156 495 422
37 147 40 277 40 1601 l0 1287 -140 0 -140 0 -2 -1362z"/>
<path d="M5180 3182 c0 -844 4 -1357 10 -1409 25 -194 78 -328 170 -426 93
-100 211 -147 365 -147 151 0 269 46 357 137 65 70 102 130 134 223 54 154 54
155 54 1608 l0 1342 -135 0 -135 0 0 -1326 c0 -1467 2 -1414 -63 -1511 -40
-59 -83 -88 -154 -104 -113 -26 -224 22 -276 118 -58 108 -57 69 -57 1506 l0
1317 -135 0 -135 0 0 -1328z"/>
<path d="M6600 2876 l0 -1635 120 -3 c66 -2 125 -1 130 0 7 2 10 426 11 1195
0 753 4 1183 10 1169 7 -18 479 -1712 638 -2292 21 -77 21 -77 172 -72 l99 3
0 1635 0 1634 -130 0 -130 0 0 -1199 c0 -683 -4 -1202 -9 -1205 -5 -3 -21 38
-35 92 -15 53 -163 594 -330 1202 l-302 1105 -122 3 -122 3 0 -1635z"/>
<path d="M9374 4497 c-2 -7 -3 -85 -2 -172 l3 -160 223 -3 222 -2 0 -1465 0
-1465 140 0 140 0 0 1465 0 1465 220 0 220 0 0 175 0 175 -580 0 c-465 0 -582
-3 -586 -13z"/>
<path d="M10730 2870 l0 -1641 137 3 137 3 -1 28 c-1 15 -1 752 -2 1637 l-1
1610 -135 0 -135 0 0 -1640z"/>
<path d="M12730 2875 l0 -1635 130 0 130 0 0 1180 c0 780 3 1180 10 1180 6 0
10 -3 10 -6 0 -3 86 -314 191 -692 104 -378 251 -905 324 -1171 74 -266 136
-485 138 -487 1 -2 56 -4 122 -5 l120 -1 3 1636 2 1636 -130 0 -130 0 -1
-1212 c0 -995 -3 -1208 -13 -1183 -7 17 -159 562 -337 1213 l-323 1182 -123 0
-123 0 0 -1635z"/>
<path d="M3654 3285 c-12 -8 -26 -27 -33 -42 -6 -16 -22 -33 -34 -38 -18 -8
-22 -19 -23 -53 -1 -40 -6 -49 -74 -117 -62 -63 -79 -74 -105 -73 -26 1 -43
-9 -87 -53 -30 -30 -60 -64 -67 -76 -19 -37 7 -79 105 -173 167 -159 174 -161
267 -69 55 55 61 65 60 99 -1 23 4 43 13 51 12 10 33 -6 122 -92 61 -60 108
-114 110 -126 3 -24 37 -53 60 -53 25 0 282 -252 290 -285 5 -16 20 -36 34
-44 24 -14 29 -13 62 13 20 15 44 39 53 53 15 22 15 28 2 51 -8 14 -28 30 -45
36 -47 17 -289 249 -300 289 -7 24 -18 35 -42 43 -20 6 -75 52 -137 114 -93
93 -103 106 -90 120 10 11 26 15 50 12 30 -4 37 0 52 27 10 17 23 31 30 31 23
0 63 61 63 95 0 28 -13 47 -81 119 -136 144 -201 180 -255 141z m161 -150 c59
-55 111 -108 117 -118 10 -20 -5 -47 -26 -47 -7 0 -68 53 -137 119 -124 118
-124 119 -105 139 11 13 24 19 32 14 7 -4 61 -52 119 -107z m-113 -39 c153
-138 191 -186 146 -186 -16 0 -248 231 -248 247 0 25 20 13 102 -61z m-3 -109
l74 -75 -21 -29 c-11 -15 -46 -53 -76 -83 l-56 -54 -90 89 -90 90 37 37 c20
20 41 34 46 31 6 -3 7 -1 4 4 -4 6 9 27 29 47 43 44 43 44 143 -57z m-248
-135 c103 -93 119 -110 119 -124 0 -6 3 -8 6 -5 8 7 44 -36 44 -52 0 -6 -4
-11 -9 -11 -21 0 -243 209 -235 221 3 5 0 9 -5 9 -6 0 -11 7 -11 15 0 26 14
17 91 -53z m2 -112 l121 -120 -22 -22 -22 -22 -60 59 c-32 32 -56 63 -53 68 4
6 1 7 -6 2 -8 -5 -33 15 -71 55 -49 52 -57 66 -49 82 5 10 16 18 25 18 8 0 70
-54 137 -120z m491 -142 c-11 -17 -26 -6 -124 88 -82 79 -98 99 -88 111 9 12
29 -3 114 -88 57 -57 101 -106 98 -111z m76 -25 c0 -23 -29 -53 -52 -53 -25 0
-23 17 8 45 31 29 44 31 44 8z m63 -106 c-3 -6 -2 -7 4 -4 5 3 56 -38 113 -91
85 -80 100 -99 89 -109 -12 -10 -38 10 -142 109 -104 98 -125 123 -116 134 10
13 15 11 35 -7 13 -12 21 -26 17 -32z m287 -229 c0 -16 -41 -58 -57 -58 -20 0
-16 21 9 47 23 25 48 31 48 11z"/>
<path d="M516 869 c-54 -42 -56 -57 -56 -334 0 -275 5 -306 54 -340 18 -13
846 -15 6674 -15 6009 0 6655 2 6677 16 48 31 55 73 55 340 0 266 -4 292 -55
332 l-28 22 -6647 0 -6647 0 -27 -21z m804 -173 c77 -40 112 -92 112 -169 0
-178 -297 -255 -438 -113 -47 46 -61 91 -49 154 9 48 86 125 141 140 58 16
192 9 234 -12z m1735 -133 c0 -145 -1 -152 -24 -176 -32 -35 -106 -51 -201
-44 -81 5 -133 25 -150 56 -5 11 -10 40 -10 65 0 44 1 46 30 46 29 0 30 -2 30
-45 0 -63 24 -76 136 -78 82 -2 87 -1 110 26 23 27 24 35 24 161 0 73 2 135 5
138 3 3 16 5 28 4 22 -1 22 -3 22 -153z m5435 132 l0 -25 -155 0 -155 0 0 -50
0 -50 95 0 c95 0 95 0 95 -25 0 -25 0 -25 -95 -25 l-95 0 0 -65 0 -65 165 0
c158 0 165 -1 165 -20 0 -19 -7 -20 -195 -20 l-195 0 0 178 c0 98 2 181 5 184
3 3 87 6 185 7 l180 2 0 -26z m2451 -162 l118 -183 -33 0 c-30 0 -38 6 -66 50
l-32 50 -129 0 -129 0 -32 -50 c-28 -43 -38 -50 -66 -50 l-32 0 27 43 c105
167 188 295 201 310 32 37 52 17 173 -170z m-6522 91 c28 -9 58 -25 67 -35 14
-16 14 -18 -5 -28 -16 -9 -27 -7 -53 9 -44 27 -108 35 -167 20 -66 -16 -101
-51 -101 -100 0 -99 178 -142 281 -70 30 22 74 19 66 -3 -6 -18 -65 -56 -106
-67 -83 -23 -203 -2 -260 46 -56 47 -59 134 -6 184 58 54 188 74 284 44z
m1067 -15 c61 -31 87 -66 87 -119 0 -52 -26 -87 -86 -119 -92 -47 -245 -35
-316 25 -56 47 -59 134 -6 184 66 62 225 77 321 29z m1632 16 c29 -9 67 -30
87 -49 30 -28 35 -40 35 -77 0 -89 -72 -147 -194 -156 -157 -13 -281 77 -246
181 15 45 49 75 112 97 65 23 138 24 206 4z m4769 0 c27 -8 58 -23 67 -34 17
-19 17 -20 -3 -30 -15 -9 -27 -7 -53 8 -45 27 -115 35 -169 21 -116 -31 -136
-137 -34 -187 60 -30 164 -21 218 18 17 12 35 18 47 14 25 -8 25 -17 3 -37
-89 -78 -279 -74 -360 7 -29 29 -33 40 -33 84 0 41 5 56 28 82 54 60 185 85
289 54z m1069 -16 c26 -13 57 -36 67 -51 26 -35 26 -101 0 -136 -51 -68 -188
-99 -296 -68 -125 36 -172 151 -92 226 66 62 225 77 321 29z m-11281 -73 l110
-94 3 94 3 94 29 0 30 0 0 -140 c0 -119 -2 -140 -15 -140 -9 0 -66 43 -128 96
l-112 95 -3 -95 -3 -96 -29 0 -30 0 0 140 c0 127 2 140 18 140 9 0 67 -43 127
-94z m645 74 c0 -19 -7 -20 -140 -20 l-140 0 0 -35 0 -35 90 0 c83 0 90 -1 90
-20 0 -19 -7 -20 -90 -20 l-90 0 0 -45 0 -45 150 0 c143 0 150 -1 150 -20 0
-19 -7 -20 -180 -20 l-180 0 0 140 0 140 170 0 c163 0 170 -1 170 -20z m930
-90 c0 -132 2 -135 126 -135 113 0 114 2 114 136 l0 109 30 0 30 0 0 -111 c0
-61 -4 -118 -10 -128 -16 -31 -70 -46 -165 -46 -105 0 -137 7 -165 37 -18 19
-20 35 -20 135 l0 113 30 0 30 0 0 -110z m575 16 l110 -94 3 94 3 94 29 0 30
0 0 -140 c0 -120 -2 -140 -16 -140 -8 0 -65 43 -127 95 l-112 95 -3 -95 -3
-95 -29 0 -30 0 0 140 c0 127 2 140 18 140 9 0 67 -43 127 -94z m1085 74 c0
-18 -7 -20 -75 -20 l-75 0 0 -120 0 -120 -30 0 -30 0 0 120 0 119 -77 3 c-65
3 -78 6 -81 21 -3 16 11 17 182 17 179 0 186 -1 186 -20z m120 -120 l0 -140
-30 0 -30 0 0 140 0 140 30 0 30 0 0 -140z m785 46 l110 -94 3 94 3 94 29 0
30 0 0 -140 c0 -121 -2 -140 -16 -140 -8 0 -66 43 -127 95 l-112 94 -3 -94 -3
-95 -29 0 -30 0 0 140 c0 127 2 140 18 140 9 0 67 -43 127 -94z m935 74 c0
-19 -7 -20 -140 -20 l-140 0 0 -35 0 -35 90 0 c83 0 90 -1 90 -20 0 -19 -7
-20 -90 -20 l-90 0 0 -65 0 -65 -30 0 -30 0 0 140 0 140 170 0 c163 0 170 -1
170 -20z m919 5 c31 -15 41 -33 41 -70 0 -21 -19 -42 -64 -70 -14 -9 -10 -18
30 -67 l46 -58 -30 0 c-24 0 -40 12 -82 60 l-52 60 -79 0 -79 0 0 -60 0 -60
-30 0 -30 0 0 140 0 140 150 0 c113 0 158 -4 179 -15z m997 -85 c37 -55 70
-100 73 -100 3 0 34 45 69 100 58 90 67 100 94 100 16 0 28 -4 26 -8 -1 -5
-41 -68 -88 -140 -50 -78 -92 -132 -101 -132 -13 0 -67 74 -183 253 l-18 27
31 0 c28 0 37 -9 97 -100z m684 80 c0 -19 -7 -20 -140 -20 l-140 0 0 -35 0
-35 95 0 c88 0 95 -1 95 -20 0 -19 -7 -20 -95 -20 l-95 0 0 -45 0 -45 150 0
c143 0 150 -1 150 -20 0 -19 -7 -20 -180 -20 l-180 0 0 140 0 140 170 0 c163
0 170 -1 170 -20z m424 10 c14 -5 32 -21 42 -35 23 -35 4 -78 -43 -100 l-34
-16 45 -54 c25 -29 46 -56 46 -59 0 -3 -13 -6 -29 -6 -23 0 -38 12 -78 60
l-48 60 -82 0 -83 0 0 -60 0 -60 -30 0 -30 0 0 140 0 140 149 0 c82 0 161 -4
175 -10z m210 -35 c29 -25 58 -45 63 -45 6 0 36 21 66 46 47 38 61 45 91 42
l36 -3 -80 -64 -80 -64 0 -74 0 -73 -30 0 -30 0 0 73 0 72 -80 64 c-44 35 -80
66 -80 68 0 1 16 3 36 3 28 0 47 -10 88 -45z m1186 -64 c0 -134 1 -136 114
-136 124 0 126 3 126 135 l0 110 30 0 30 0 0 -109 c0 -100 -2 -112 -22 -136
-51 -59 -261 -62 -319 -4 -17 17 -19 34 -19 134 l0 115 30 0 30 0 0 -109z
m1210 89 c0 -18 -7 -20 -75 -20 l-75 0 0 -120 0 -120 -30 0 -30 0 0 120 0 119
-77 3 c-65 3 -78 6 -81 21 -3 16 11 17 182 17 179 0 186 -1 186 -20z m120
-120 l0 -140 -30 0 -30 0 0 140 0 140 30 0 30 0 0 -140z m785 46 l110 -94 3
94 3 94 29 0 30 0 0 -140 c0 -120 -2 -140 -16 -140 -8 0 -65 43 -127 95 l-112
95 -3 -95 -3 -95 -29 0 -30 0 0 140 c0 127 2 140 18 140 9 0 67 -43 127 -94z"/>
<path d="M1111 667 c-48 -15 -97 -68 -105 -112 -10 -53 22 -115 75 -144 55
-31 149 -33 205 -4 59 30 87 77 81 137 -4 41 -11 55 -40 82 -55 50 -138 66
-216 41z"/>
<path d="M10747 573 c-26 -42 -46 -77 -44 -80 3 -2 48 -2 101 -1 l96 3 -46 70
c-26 39 -49 73 -53 77 -3 4 -28 -27 -54 -69z"/>
<path d="M5281 588 c-114 -32 -130 -138 -28 -184 111 -50 257 -1 257 86 0 80
-117 131 -229 98z"/>
<path d="M6935 582 c-39 -13 -54 -25 -70 -54 -18 -34 -18 -38 -3 -71 22 -47
76 -71 158 -71 99 0 160 40 160 105 0 29 -7 43 -30 63 -56 47 -131 57 -215 28z"/>
<path d="M12747 587 c-57 -18 -87 -52 -87 -96 0 -65 61 -105 160 -105 122 0
193 69 151 148 -28 51 -145 79 -224 53z"/>
<path d="M7402 553 l3 -37 115 3 c63 1 118 5 122 7 15 10 8 43 -11 54 -11 5
-68 10 -126 10 l-106 0 3 -37z"/>
<path d="M9510 555 c0 -34 1 -35 38 -36 35 -1 130 -1 179 1 31 0 48 34 27 54
-12 13 -39 16 -130 16 l-114 0 0 -35z"/>
</g>
</svg>
